<svg xmlns="http://www.w3.org/2000/svg" viewBox="0 0 36 36">
  <defs>
    <linearGradient id="trailer" x1="0%" y1="50%" x2="100%" y2="50%">
      <stop offset="0%" stop-color="#D255FE"/>
      <stop offset="100%" stop-color="#651DDD"/>
    </linearGradient>
  </defs>

  <path fill="#242133" d="M31 25H11v-1c0-2.2-1.8-4-4-4H4c-2.2 0-4 1.8-4 4v3c0 2.2 1.8 4 4 4h28c2.2 0 4-1.8 4-4v-2h-5z"/>
  <path fill="#D255FE" d="M4 25V15.5l3.5-2.5h6l2.5 1.5V25H4z"/>
  <rect x="5.5" y="15" width="5.5" height="4" rx="0.75" fill="#651DDD" fill-opacity="0.55"/>
  <path fill="url(#trailer)" d="M32 8H19c-2.2 0-4 1.8-4 4v13h17V12c0-2.2-1.8-4-4-4z"/>
  <circle fill="#0E0C14" cx="6" cy="31" r="4"/>
  <circle fill="#D255FE" fill-opacity="0.7" cx="6" cy="31" r="2"/>
  <circle fill="#0E0C14" cx="20" cy="31" r="4"/>
  <circle fill="#D255FE" fill-opacity="0.7" cx="20" cy="31" r="2"/>
  <circle fill="#0E0C14" cx="30" cy="31" r="4"/>
  <circle fill="#D255FE" fill-opacity="0.7" cx="30" cy="31" r="2"/>
</svg>